<svg xmlns="http://www.w3.org/2000/svg" viewBox="0 0 256 256" role="img" aria-labelledby="title desc">
  <title id="title">System English Words</title>
  <desc id="desc">Stylized SWS monogram on a rounded card.</desc>
  <defs>
    <linearGradient id="bg" x1="0%" y1="0%" x2="100%" y2="100%">
      <stop offset="0%" stop-color="#7ce1ff" />
      <stop offset="100%" stop-color="#1f7de3" />
    </linearGradient>
    <linearGradient id="fg" x1="0%" y1="0%" x2="100%" y2="100%">
      <stop offset="0%" stop-color="#ffffff" />
      <stop offset="100%" stop-color="#d6edff" />
    </linearGradient>
  </defs>
  <rect x="20" y="20" width="216" height="216" rx="48" fill="#09131f" />
  <rect x="32" y="32" width="192" height="192" rx="40" fill="url(#bg)" />
  <path
    fill="url(#fg)"
    d="M82 89c0-14 12-27 31-27 14 0 25 6 34 16l-15 14c-5-6-10-10-18-10-7 0-12 4-12 9 0 7 6 10 17 14 19 8 35 15 35 40 0 22-18 38-44 38-21 0-35-9-45-22l16-15c8 10 17 17 29 17 10 0 16-5 16-12 0-9-8-12-22-18-17-7-32-16-32-34Zm98-16h22v110h-22z"
  />
</svg>
